# Blender v2.80 (sub 75) OBJ File: 'goldenvalve.blend'
# www.blender.org
mtllib intro_material.mtl
o Head
v -0.262025 -0.995487 -0.256778
v -0.423966 -0.995491 -0.104141
v -0.423966 -0.995497 0.084529
v -0.262025 -0.995501 0.237167
v -0.420544 -0.878148 -0.523207
v -0.663251 -0.878157 -0.212238
v -0.663251 -0.878168 0.199605
v -0.356464 -0.878179 0.570497
v -0.678655 -0.569263 -0.784542
v -0.963498 -0.569276 -0.327851
v -0.963498 -0.569294 0.310328
v -0.582857 -0.569310 0.850507
v -0.783730 -0.000265 -0.936512
v -1.132798 -0.000280 -0.427012
v -1.132798 -0.000303 0.397330
v -0.650094 -0.000321 1.021487
v -0.678655 0.736890 -0.784505
v -0.963498 0.736877 -0.327814
v -0.963498 0.736859 0.310365
v -0.582857 0.736844 0.850544
v -0.420544 1.038513 -0.523152
v -0.663251 1.038504 -0.212183
v -0.663251 1.038492 0.199660
v -0.356464 1.038481 0.570552
v -0.262025 1.177631 -0.256716
v -0.423966 1.177626 -0.104079
v -0.423966 1.177621 0.084591
v -0.262025 1.177617 0.237229
v 0.000000 -0.995485 -0.315081
v 0.262026 -0.995487 -0.256778
v 0.423966 -0.995491 -0.104141
v 0.423966 -0.995497 0.084529
v 0.262025 -0.995501 0.237167
v 0.000000 -0.995503 0.295469
v 0.000000 -0.878144 -0.651398
v 0.420544 -0.878148 -0.523207
v 0.663251 -0.878157 -0.212238
v 0.663251 -0.878168 0.199605
v 0.356464 -0.878179 0.570497
v 0.000000 -0.878181 0.638765
v 0.000000 -0.569257 -1.007106
v 0.678655 -0.569263 -0.784542
v 0.963498 -0.569276 -0.327851
v 0.963498 -0.569294 0.310328
v 0.582857 -0.569310 0.850507
v 0.000000 -0.569313 0.980743
v 0.000000 -0.000257 -1.214978
v 0.783730 -0.000265 -0.936512
v 1.132798 -0.000280 -0.427012
v 1.132798 -0.000303 0.397330
v 0.650094 -0.000321 1.021487
v 0.000000 -0.000326 1.181860
v 0.000000 0.736897 -1.007069
v 0.678655 0.736890 -0.784505
v 0.963498 0.736877 -0.327814
v 0.963498 0.736859 0.310365
v 0.582857 0.736844 0.850544
v 0.000000 0.736840 0.980780
v 0.000000 1.038516 -0.651344
v 0.420544 1.038513 -0.523152
v 0.663251 1.038504 -0.212183
v 0.663251 1.038492 0.199660
v 0.356464 1.038481 0.570552
v 0.000000 1.038479 0.638820
v 0.000000 1.177633 -0.315019
v 0.262026 1.177631 -0.256716
v 0.423966 1.177626 -0.104079
v 0.423966 1.177621 0.084591
v 0.262025 1.177617 0.237229
v 0.000000 1.177615 0.295531
v 0.000000 0.906306 -1.500014
v 0.000000 0.643632 -1.495354
v 0.302138 0.738412 -1.547349
v 0.084286 0.596795 -1.508559
v 0.302138 0.402622 -1.642018
v 0.084286 0.503122 -1.534968
v -0.000000 0.234728 -1.689353
v -0.000000 0.456285 -1.548173
v -0.302138 0.402622 -1.642018
v -0.084286 0.503122 -1.534968
v -0.302138 0.738412 -1.547349
v -0.084286 0.596795 -1.508559
v 0.302138 0.717853 -1.474429
v 0.000000 0.885748 -1.427094
v 0.302138 0.382064 -1.569098
v -0.000000 0.214169 -1.616433
v -0.302138 0.382064 -1.569098
v -0.302138 0.717853 -1.474429
v 0.084286 0.463123 -1.034428
v 0.000000 0.509960 -1.021223
v 0.084286 0.369450 -1.060837
v -0.000000 0.322613 -1.074042
v -0.084286 0.369450 -1.060837
v -0.084286 0.463123 -1.034428
v -1.043503 -0.070472 1.170494
v 1.043503 -0.070472 1.170494
v -1.043503 0.701290 1.035536
v 1.043503 0.701290 1.035536
vt 0.110287 0.717588
vt 0.115656 0.722520
vt 0.112486 0.734153
vt 0.101829 0.721857
vt 0.115356 0.706292
vt 0.110175 0.711415
vt 0.101572 0.707681
vt 0.109633 0.697044
vt 0.124323 0.724294
vt 0.124563 0.736236
vt 0.123929 0.704150
vt 0.123690 0.692460
vt 0.078159 0.739854
vt 0.092973 0.740314
vt 0.093640 0.755074
vt 0.077414 0.755043
vt 0.248763 0.403816
vt 0.322314 0.408995
vt 0.322314 0.491458
vt 0.225858 0.489323
vt 0.062481 0.735063
vt 0.054020 0.749496
vt 0.152684 0.372677
vt 0.106705 0.456254
vt 0.226018 0.583513
vt 0.079001 0.579846
vt 0.092545 0.770807
vt 0.075326 0.770455
vt 0.322314 0.583847
vt 0.108177 0.736795
vt 0.115343 0.751193
vt 0.051018 0.769435
vt 0.322314 0.698794
vt 0.226399 0.701436
vt 0.119897 0.770835
vt 0.724704 0.296220
vt 0.932310 0.315164
vt 0.903072 0.503387
vt 0.724704 0.488191
vt 0.109011 0.734839
vt 0.092963 0.790566
vt 0.076833 0.789875
vt 0.322314 0.779720
vt 0.249458 0.784953
vt 0.114303 0.795208
vt 0.053012 0.794375
vt 0.076878 0.804961
vt 0.060886 0.809123
vt 0.154636 0.816304
vt 0.091724 0.805092
vt 0.067103 0.694568
vt 0.079304 0.692460
vt 0.079032 0.704630
vt 0.070374 0.706409
vt 0.106740 0.809123
vt 0.078316 0.736683
vt 0.064156 0.732015
vt 0.070026 0.722601
vt 0.078582 0.724781
vt 0.056384 0.706976
vt 0.065061 0.711351
vt 0.056095 0.721248
vt 0.064936 0.717453
vt 0.138086 0.717023
vt 0.146706 0.720961
vt 0.136543 0.733666
vt 0.132905 0.722165
vt 0.132588 0.705934
vt 0.137929 0.696463
vt 0.146412 0.706781
vt 0.137960 0.710849
vt 0.161636 0.739854
vt 0.162380 0.755043
vt 0.146154 0.755074
vt 0.146821 0.740314
vt 0.395865 0.403816
vt 0.418770 0.489323
vt 0.177314 0.735063
vt 0.185775 0.749496
vt 0.491944 0.372677
vt 0.537924 0.456253
vt 0.565628 0.579845
vt 0.418611 0.583513
vt 0.164469 0.770455
vt 0.147250 0.770807
vt 0.124452 0.751193
vt 0.131617 0.736795
vt 0.192668 0.769435
vt 0.418230 0.701436
vt 0.119897 0.770835
vt 0.546336 0.503387
vt 0.517099 0.315164
vt 0.535618 0.734839
vt 0.162962 0.789875
vt 0.146831 0.790566
vt 0.395170 0.784953
vt 0.125492 0.795208
vt 0.186782 0.794375
vt 0.178909 0.809123
vt 0.162917 0.804961
vt 0.489992 0.816304
vt 0.148071 0.805092
vt 0.091400 0.695111
vt 0.087603 0.706794
vt 0.133054 0.809123
vt 0.087227 0.722985
vt 0.092671 0.732653
vt 0.101554 0.707986
vt 0.092690 0.711968
vt 0.092542 0.718070
vt 0.101204 0.722256
vt 0.755010 0.646733
vt 0.755010 0.676411
vt 0.745117 0.676411
vt 0.745117 0.646733
vt 0.735225 0.676411
vt 0.735225 0.646733
vt 0.725332 0.676411
vt 0.725332 0.646733
vt 0.715439 0.676411
vt 0.715439 0.646733
vt 0.699278 0.528180
vt 0.724407 0.528180
vt 0.724407 0.640004
vt 0.699278 0.640004
vt 0.705547 0.676411
vt 0.705547 0.646733
vt 0.695654 0.676411
vt 0.695654 0.646733
vt 0.726562 0.773832
vt 0.747202 0.761916
vt 0.800548 0.792715
vt 0.726562 0.835431
vt 0.747202 0.738084
vt 0.800548 0.707285
vt 0.726562 0.726168
vt 0.726562 0.664569
vt 0.705923 0.738084
vt 0.652577 0.707285
vt 0.705923 0.761916
vt 0.652577 0.792715
vt 0.755476 0.528180
vt 0.780605 0.528180
vt 0.780605 0.640004
vt 0.755476 0.640004
vt 0.643079 0.528180
vt 0.674149 0.528180
vt 0.674149 0.640004
vt 0.643079 0.640004
vt 0.805735 0.528180
vt 0.805735 0.640004
vt 0.723401 0.837829
vt 0.648095 0.790217
vt 0.651675 0.701195
vt 0.730561 0.659784
vt 0.805867 0.707396
vt 0.802287 0.796418
vt 0.029427 0.847785
vt 0.392929 0.847785
vt 0.392929 0.984246
vt 0.029427 0.984246
vn -0.3725 -0.9188 0.1303
vn -0.1931 -0.9374 0.2897
vn -0.2717 -0.8430 0.4642
vn -0.5401 -0.8209 0.1857
vn -0.1938 -0.9332 -0.3027
vn -0.3736 -0.9184 -0.1303
vn -0.5423 -0.8221 -0.1735
vn -0.3042 -0.8417 -0.4461
vn -0.0000 -0.9476 0.3195
vn 0.0000 -0.8493 0.5279
vn -0.0000 -0.9399 -0.3414
vn 0.0000 -0.8445 -0.5355
vn -0.8198 -0.5191 -0.2418
vn -0.5202 -0.5337 -0.6667
vn -0.0000 -0.5307 0.8476
vn -0.4749 -0.5271 0.7047
vn 0.0000 -0.5351 -0.8448
vn -0.8164 -0.5128 0.2654
vn -0.5397 -0.0336 0.8412
vn -0.9464 -0.0316 0.3216
vn -0.9542 -0.0325 -0.2975
vn -0.6106 -0.0341 -0.7912
vn -0.0000 -0.0341 0.9994
vn 0.0000 -0.0340 -0.9994
vn 0.0000 0.5037 0.8639
vn -0.4827 0.4994 0.7194
vn -0.5304 0.5056 -0.6804
vn 0.0000 0.5072 -0.8618
vn -0.8301 0.4873 0.2711
vn -0.8340 0.4932 -0.2476
vn 0.0000 0.8396 0.5433
vn -0.2777 0.8340 0.4767
vn -0.3120 0.8316 -0.4594
vn 0.0000 0.8350 -0.5503
vn -0.5548 0.8095 0.1919
vn -0.5573 0.8106 -0.1797
vn 0.0000 0.9768 0.2142
vn -0.1320 0.9711 0.1990
vn -0.1328 0.9692 -0.2076
vn -0.0000 0.9736 -0.2285
vn -0.2726 0.9573 0.0959
vn -0.2734 0.9571 -0.0957
vn 0.3725 -0.9188 0.1303
vn 0.5401 -0.8209 0.1857
vn 0.2717 -0.8430 0.4642
vn 0.1931 -0.9374 0.2897
vn 0.1938 -0.9332 -0.3027
vn 0.3042 -0.8417 -0.4461
vn 0.5423 -0.8221 -0.1735
vn 0.3736 -0.9184 -0.1303
vn 0.5202 -0.5337 -0.6667
vn 0.8198 -0.5191 -0.2418
vn 0.4749 -0.5271 0.7047
vn 0.8164 -0.5128 0.2654
vn 0.9464 -0.0316 0.3216
vn 0.5397 -0.0336 0.8412
vn 0.6106 -0.0341 -0.7912
vn 0.9542 -0.0325 -0.2975
vn 0.4827 0.4994 0.7194
vn 0.5304 0.5056 -0.6804
vn 0.8301 0.4873 0.2711
vn 0.8340 0.4932 -0.2476
vn 0.2777 0.8340 0.4767
vn 0.3120 0.8316 -0.4594
vn 0.5548 0.8095 0.1919
vn 0.5573 0.8106 -0.1797
vn 0.1320 0.9711 0.1990
vn 0.1328 0.9692 -0.2076
vn 0.2726 0.9573 0.0959
vn 0.2734 0.9571 -0.0957
vn 0.0000 0.9282 -0.3721
vn 0.0000 0.5972 0.8021
vn 0.6862 0.2158 0.6946
vn 0.6862 0.5469 -0.4796
vn 0.6862 -0.5469 0.4796
vn 0.6862 -0.2158 -0.6946
vn -0.0000 -0.9282 0.3721
vn 0.0000 -0.5972 -0.8021
vn -0.6862 -0.5469 0.4796
vn -0.6862 -0.2158 -0.6946
vn -0.0000 0.2967 0.9550
vn -0.4717 0.0346 0.8811
vn -0.8660 0.4812 0.1357
vn -0.0000 0.9625 0.2714
vn -0.6862 0.2158 0.6946
vn -0.6862 0.5469 -0.4796
vn 0.4717 0.0346 0.8811
vn 0.4717 -0.4897 0.7333
vn -0.0000 -0.7518 0.6594
vn -0.4717 -0.4897 0.7333
vn -0.0000 -0.9625 -0.2714
vn -0.8660 -0.4812 -0.1357
vn 0.8660 0.4812 0.1357
vn 0.8660 -0.4812 -0.1357
vn 0.0000 0.1723 0.9851
usemtl Texture
s 1
f 3/1/1 4/2/2 8/3/3 7/4/4
f 1/5/5 2/6/6 6/7/7 5/8/8
f 4/2/2 34/9/9 40/10/10 8/3/3
f 29/11/11 1/5/5 5/8/8 35/12/12
f 5/13/8 6/14/7 10/15/13 9/16/14
f 8/17/3 40/18/10 46/19/15 12/20/16
f 2/6/6 3/1/1 7/4/4 6/7/7
f 35/21/12 5/13/8 9/16/14 41/22/17
f 7/23/4 8/17/3 12/20/16 11/24/18
f 11/24/18 12/20/16 16/25/19 15/26/20
f 9/16/14 10/15/13 14/27/21 13/28/22
f 12/20/16 46/19/15 52/29/23 16/25/19
f 6/14/7 7/30/4 11/31/18 10/15/13
f 41/22/17 9/16/14 13/28/22 47/32/24
f 16/25/19 52/29/23 58/33/25 20/34/26
f 10/15/13 11/31/18 15/35/20 14/27/21
f 47/36/24 13/37/22 17/38/27 53/39/28
f 15/26/20 16/25/19 20/34/26 19/40/29
f 13/28/22 14/27/21 18/41/30 17/42/27
f 20/34/26 58/33/25 64/43/31 24/44/32
f 14/27/21 15/35/20 19/45/29 18/41/30
f 53/46/28 17/42/27 21/47/33 59/48/34
f 19/40/29 20/34/26 24/44/32 23/49/35
f 17/42/27 18/41/30 22/50/36 21/47/33
f 24/51/32 64/52/31 70/53/37 28/54/38
f 18/41/30 19/45/29 23/55/35 22/50/36
f 59/56/34 21/57/33 25/58/39 65/59/40
f 23/60/35 24/51/32 28/54/38 27/61/41
f 21/57/33 22/62/36 26/63/42 25/58/39
f 22/62/36 23/60/35 27/61/41 26/63/42
f 26/63/42 27/61/41 28/54/38 25/58/39
f 32/64/43 38/65/44 39/66/45 33/67/46
f 30/68/47 36/69/48 37/70/49 31/71/50
f 33/67/46 39/66/45 40/10/10 34/9/9
f 25/58/39 28/54/38 70/53/37 65/59/40
f 29/11/11 35/12/12 36/69/48 30/68/47
f 36/72/48 42/73/51 43/74/52 37/75/49
f 39/76/45 45/77/53 46/19/15 40/18/10
f 31/71/50 37/70/49 38/65/44 32/64/43
f 35/78/12 41/79/17 42/73/51 36/72/48
f 38/80/44 44/81/54 45/77/53 39/76/45
f 44/81/54 50/82/55 51/83/56 45/77/53
f 42/73/51 48/84/57 49/85/58 43/74/52
f 45/77/53 51/83/56 52/29/23 46/19/15
f 37/75/49 43/74/52 44/86/54 38/87/44
f 41/79/17 47/88/24 48/84/57 42/73/51
f 51/83/56 57/89/59 58/33/25 52/29/23
f 43/74/52 49/85/58 50/90/55 44/86/54
f 47/36/24 53/39/28 54/91/60 48/92/57
f 50/82/55 56/93/61 57/89/59 51/83/56
f 48/84/57 54/94/60 55/95/62 49/85/58
f 57/89/59 63/96/63 64/43/31 58/33/25
f 49/85/58 55/95/62 56/97/61 50/90/55
f 53/98/28 59/99/34 60/100/64 54/94/60
f 56/93/61 62/101/65 63/96/63 57/89/59
f 54/94/60 60/100/64 61/102/66 55/95/62
f 63/103/63 69/104/67 70/53/37 64/52/31
f 55/95/62 61/102/66 62/105/65 56/97/61
f 59/56/34 65/59/40 66/106/68 60/107/64
f 62/108/65 68/109/69 69/104/67 63/103/63
f 60/107/64 66/106/68 67/110/70 61/111/66
f 61/111/66 67/110/70 68/109/69 62/108/65
f 67/110/70 66/106/68 69/104/67 68/109/69
f 66/106/68 65/59/40 70/53/37 69/104/67
f 71/112/71 84/113/72 83/114/73 73/115/74
f 73/115/74 83/114/73 85/116/75 75/117/76
f 75/117/76 85/116/75 86/118/77 77/119/78
f 77/119/78 86/118/77 87/120/79 79/121/80
f 72/122/81 82/123/82 94/124/83 90/125/84
f 79/121/80 87/120/79 88/126/85 81/127/86
f 81/127/86 88/126/85 84/128/72 71/129/71
f 72/130/81 74/131/87 83/132/73 84/133/72
f 74/131/87 76/134/88 85/135/75 83/132/73
f 76/134/88 78/136/89 86/137/77 85/135/75
f 78/136/89 80/138/90 87/139/79 86/137/77
f 80/138/90 82/140/82 88/141/85 87/139/79
f 82/140/82 72/130/81 84/133/72 88/141/85
f 80/142/90 78/143/89 92/144/91 93/145/92
f 76/146/88 74/147/87 89/148/93 91/149/94
f 82/123/82 80/142/90 93/145/92 94/124/83
f 78/143/89 76/150/88 91/151/94 92/144/91
f 74/147/87 72/122/81 90/125/84 89/148/93
f 71/152/71 73/153/74 75/154/76 77/155/78
f 77/155/78 79/156/80 81/157/86 71/152/71
f 95/158/95 96/159/95 98/160/95 97/161/95
